<?xml version="1.0" encoding="utf-8"?>
<svg xmlns="http://www.w3.org/2000/svg" xmlns:xlink="http://www.w3.org/1999/xlink" xml:space="preserve" width="714" height="714" viewBox="0 0 714 714"><g transform="scale(29.75)" fill="#000000"><path d="M6.28,0.5c0,0.28-0.22,0.5-0.5,0.5H2C1.45,1,1,1.45,1,2v3.74c0,0.01,0.01,0.02,0.01,0.04c0,0.28-0.22,0.5-0.5,0.5  c-0.28,0-0.5-0.22-0.5-0.5H0V2c0-1.1,0.9-2,2-2h3.78C6.06,0,6.28,0.22,6.28,0.5z M24,5.78V2c0-1.1-0.9-2-2-2h-3.78v0.01  c-0.28,0-0.5,0.22-0.5,0.5c0,0.28,0.22,0.5,0.5,0.5c0.01,0,0.03-0.01,0.04-0.01H22c0.55,0,1,0.45,1,1v3.78c0,0.28,0.22,0.5,0.5,0.5  C23.78,6.28,24,6.06,24,5.78z M18.22,24H22c1.1,0,2-0.9,2-2v-3.78h-0.01c0-0.28-0.22-0.5-0.5-0.5c-0.28,0-0.5,0.22-0.5,0.5  c0,0.01,0.01,0.03,0.01,0.04V22c0,0.55-0.45,1-1,1h-3.78c-0.28,0-0.5,0.22-0.5,0.5C17.72,23.78,17.94,24,18.22,24z M0,18.22V22  c0,1.1,0.9,2,2,2h3.78v-0.01c0.28,0,0.5-0.22,0.5-0.5c0-0.28-0.22-0.5-0.5-0.5C5.77,22.99,5.76,23,5.74,23H2c-0.55,0-1-0.45-1-1  v-3.78c0-0.28-0.22-0.5-0.5-0.5C0.22,17.72,0,17.94,0,18.22z"/></g><g fill="#000000">
<g transform="translate(369,105) scale(4.12)"><rect width="6" height="6"/></g>
<g transform="translate(393,105) scale(4.12)"><rect width="6" height="6"/></g>
<g transform="translate(321,129) scale(4.12)"><rect width="6" height="6"/></g>
<g transform="translate(345,129) scale(4.12)"><rect width="6" height="6"/></g>
<g transform="translate(369,129) scale(4.12)"><rect width="6" height="6"/></g>
<g transform="translate(393,129) scale(4.12)"><rect width="6" height="6"/></g>
<g transform="translate(297,153) scale(4.12)"><rect width="6" height="6"/></g>
<g transform="translate(321,153) scale(4.12)"><rect width="6" height="6"/></g>
<g transform="translate(369,153) scale(4.12)"><rect width="6" height="6"/></g>
<g transform="translate(297,177) scale(4.12)"><rect width="6" height="6"/></g>
<g transform="translate(321,177) scale(4.12)"><rect width="6" height="6"/></g>
<g transform="translate(393,177) scale(4.12)"><rect width="6" height="6"/></g>
<g transform="translate(297,201) scale(4.12)"><rect width="6" height="6"/></g>
<g transform="translate(321,201) scale(4.12)"><rect width="6" height="6"/></g>
<g transform="translate(369,201) scale(4.12)"><rect width="6" height="6"/></g>
<g transform="translate(393,201) scale(4.12)"><rect width="6" height="6"/></g>
<g transform="translate(297,225) scale(4.12)"><rect width="6" height="6"/></g>
<g transform="translate(345,225) scale(4.12)"><rect width="6" height="6"/></g>
<g transform="translate(393,225) scale(4.12)"><rect width="6" height="6"/></g>
<g transform="translate(297,249) scale(4.12)"><rect width="6" height="6"/></g>
<g transform="translate(345,249) scale(4.12)"><rect width="6" height="6"/></g>
<g transform="translate(393,249) scale(4.12)"><rect width="6" height="6"/></g>
<g transform="translate(297,273) scale(4.12)"><rect width="6" height="6"/></g>
<g transform="translate(345,273) scale(4.12)"><rect width="6" height="6"/></g>
<g transform="translate(369,273) scale(4.12)"><rect width="6" height="6"/></g>
<g transform="translate(393,273) scale(4.12)"><rect width="6" height="6"/></g>
<g transform="translate(105,297) scale(4.12)"><rect width="6" height="6"/></g>
<g transform="translate(153,297) scale(4.12)"><rect width="6" height="6"/></g>
<g transform="translate(177,297) scale(4.12)"><rect width="6" height="6"/></g>
<g transform="translate(201,297) scale(4.12)"><rect width="6" height="6"/></g>
<g transform="translate(225,297) scale(4.12)"><rect width="6" height="6"/></g>
<g transform="translate(249,297) scale(4.12)"><rect width="6" height="6"/></g>
<g transform="translate(321,297) scale(4.12)"><rect width="6" height="6"/></g>
<g transform="translate(345,297) scale(4.12)"><rect width="6" height="6"/></g>
<g transform="translate(393,297) scale(4.12)"><rect width="6" height="6"/></g>
<g transform="translate(441,297) scale(4.12)"><rect width="6" height="6"/></g>
<g transform="translate(465,297) scale(4.12)"><rect width="6" height="6"/></g>
<g transform="translate(489,297) scale(4.12)"><rect width="6" height="6"/></g>
<g transform="translate(513,297) scale(4.12)"><rect width="6" height="6"/></g>
<g transform="translate(537,297) scale(4.12)"><rect width="6" height="6"/></g>
<g transform="translate(105,321) scale(4.12)"><rect width="6" height="6"/></g>
<g transform="translate(153,321) scale(4.12)"><rect width="6" height="6"/></g>
<g transform="translate(177,321) scale(4.12)"><rect width="6" height="6"/></g>
<g transform="translate(201,321) scale(4.12)"><rect width="6" height="6"/></g>
<g transform="translate(297,321) scale(4.12)"><rect width="6" height="6"/></g>
<g transform="translate(393,321) scale(4.12)"><rect width="6" height="6"/></g>
<g transform="translate(465,321) scale(4.12)"><rect width="6" height="6"/></g>
<g transform="translate(513,321) scale(4.12)"><rect width="6" height="6"/></g>
<g transform="translate(537,321) scale(4.12)"><rect width="6" height="6"/></g>
<g transform="translate(105,345) scale(4.12)"><rect width="6" height="6"/></g>
<g transform="translate(177,345) scale(4.12)"><rect width="6" height="6"/></g>
<g transform="translate(201,345) scale(4.12)"><rect width="6" height="6"/></g>
<g transform="translate(249,345) scale(4.12)"><rect width="6" height="6"/></g>
<g transform="translate(273,345) scale(4.12)"><rect width="6" height="6"/></g>
<g transform="translate(369,345) scale(4.12)"><rect width="6" height="6"/></g>
<g transform="translate(417,345) scale(4.12)"><rect width="6" height="6"/></g>
<g transform="translate(489,345) scale(4.12)"><rect width="6" height="6"/></g>
<g transform="translate(513,345) scale(4.12)"><rect width="6" height="6"/></g>
<g transform="translate(537,345) scale(4.12)"><rect width="6" height="6"/></g>
<g transform="translate(561,345) scale(4.12)"><rect width="6" height="6"/></g>
<g transform="translate(153,369) scale(4.12)"><rect width="6" height="6"/></g>
<g transform="translate(177,369) scale(4.12)"><rect width="6" height="6"/></g>
<g transform="translate(273,369) scale(4.12)"><rect width="6" height="6"/></g>
<g transform="translate(345,369) scale(4.12)"><rect width="6" height="6"/></g>
<g transform="translate(465,369) scale(4.12)"><rect width="6" height="6"/></g>
<g transform="translate(489,369) scale(4.12)"><rect width="6" height="6"/></g>
<g transform="translate(513,369) scale(4.12)"><rect width="6" height="6"/></g>
<g transform="translate(537,369) scale(4.12)"><rect width="6" height="6"/></g>
<g transform="translate(105,393) scale(4.12)"><rect width="6" height="6"/></g>
<g transform="translate(129,393) scale(4.12)"><rect width="6" height="6"/></g>
<g transform="translate(153,393) scale(4.12)"><rect width="6" height="6"/></g>
<g transform="translate(201,393) scale(4.12)"><rect width="6" height="6"/></g>
<g transform="translate(249,393) scale(4.12)"><rect width="6" height="6"/></g>
<g transform="translate(273,393) scale(4.12)"><rect width="6" height="6"/></g>
<g transform="translate(321,393) scale(4.12)"><rect width="6" height="6"/></g>
<g transform="translate(345,393) scale(4.12)"><rect width="6" height="6"/></g>
<g transform="translate(369,393) scale(4.12)"><rect width="6" height="6"/></g>
<g transform="translate(417,393) scale(4.12)"><rect width="6" height="6"/></g>
<g transform="translate(489,393) scale(4.12)"><rect width="6" height="6"/></g>
<g transform="translate(513,393) scale(4.12)"><rect width="6" height="6"/></g>
<g transform="translate(537,393) scale(4.12)"><rect width="6" height="6"/></g>
<g transform="translate(561,393) scale(4.12)"><rect width="6" height="6"/></g>
<g transform="translate(297,417) scale(4.12)"><rect width="6" height="6"/></g>
<g transform="translate(321,417) scale(4.12)"><rect width="6" height="6"/></g>
<g transform="translate(369,417) scale(4.12)"><rect width="6" height="6"/></g>
<g transform="translate(393,417) scale(4.12)"><rect width="6" height="6"/></g>
<g transform="translate(417,417) scale(4.12)"><rect width="6" height="6"/></g>
<g transform="translate(441,417) scale(4.12)"><rect width="6" height="6"/></g>
<g transform="translate(537,417) scale(4.12)"><rect width="6" height="6"/></g>
<g transform="translate(561,417) scale(4.12)"><rect width="6" height="6"/></g>
<g transform="translate(393,441) scale(4.12)"><rect width="6" height="6"/></g>
<g transform="translate(441,441) scale(4.12)"><rect width="6" height="6"/></g>
<g transform="translate(465,441) scale(4.12)"><rect width="6" height="6"/></g>
<g transform="translate(513,441) scale(4.12)"><rect width="6" height="6"/></g>
<g transform="translate(561,441) scale(4.12)"><rect width="6" height="6"/></g>
<g transform="translate(297,465) scale(4.12)"><rect width="6" height="6"/></g>
<g transform="translate(321,465) scale(4.12)"><rect width="6" height="6"/></g>
<g transform="translate(369,465) scale(4.12)"><rect width="6" height="6"/></g>
<g transform="translate(393,465) scale(4.12)"><rect width="6" height="6"/></g>
<g transform="translate(417,465) scale(4.12)"><rect width="6" height="6"/></g>
<g transform="translate(441,465) scale(4.12)"><rect width="6" height="6"/></g>
<g transform="translate(513,465) scale(4.12)"><rect width="6" height="6"/></g>
<g transform="translate(537,465) scale(4.12)"><rect width="6" height="6"/></g>
<g transform="translate(297,489) scale(4.12)"><rect width="6" height="6"/></g>
<g transform="translate(321,489) scale(4.12)"><rect width="6" height="6"/></g>
<g transform="translate(393,489) scale(4.12)"><rect width="6" height="6"/></g>
<g transform="translate(465,489) scale(4.12)"><rect width="6" height="6"/></g>
<g transform="translate(513,489) scale(4.12)"><rect width="6" height="6"/></g>
<g transform="translate(537,489) scale(4.12)"><rect width="6" height="6"/></g>
<g transform="translate(561,489) scale(4.12)"><rect width="6" height="6"/></g>
<g transform="translate(297,513) scale(4.12)"><rect width="6" height="6"/></g>
<g transform="translate(393,513) scale(4.12)"><rect width="6" height="6"/></g>
<g transform="translate(465,513) scale(4.12)"><rect width="6" height="6"/></g>
<g transform="translate(513,513) scale(4.12)"><rect width="6" height="6"/></g>
<g transform="translate(537,513) scale(4.12)"><rect width="6" height="6"/></g>
<g transform="translate(297,537) scale(4.12)"><rect width="6" height="6"/></g>
<g transform="translate(321,537) scale(4.12)"><rect width="6" height="6"/></g>
<g transform="translate(345,537) scale(4.12)"><rect width="6" height="6"/></g>
<g transform="translate(369,537) scale(4.12)"><rect width="6" height="6"/></g>
<g transform="translate(417,537) scale(4.12)"><rect width="6" height="6"/></g>
<g transform="translate(489,537) scale(4.12)"><rect width="6" height="6"/></g>
<g transform="translate(537,537) scale(4.12)"><rect width="6" height="6"/></g>
<g transform="translate(321,561) scale(4.12)"><rect width="6" height="6"/></g>
<g transform="translate(345,561) scale(4.12)"><rect width="6" height="6"/></g>
<g transform="translate(465,561) scale(4.12)"><rect width="6" height="6"/></g>
<g transform="translate(489,561) scale(4.12)"><rect width="6" height="6"/></g>
<g transform="translate(537,561) scale(4.12)"><rect width="6" height="6"/></g>
<g transform="translate(297,585) scale(4.12)"><rect width="6" height="6"/></g>
<g transform="translate(369,585) scale(4.12)"><rect width="6" height="6"/></g>
<g transform="translate(417,585) scale(4.12)"><rect width="6" height="6"/></g>
<g transform="translate(489,585) scale(4.12)"><rect width="6" height="6"/></g>
<g transform="translate(537,585) scale(4.12)"><rect width="6" height="6"/></g>
<g transform="translate(561,585) scale(4.12)"><rect width="6" height="6"/></g>
<g transform="translate(105,105)"><g transform="scale(12)"><path d="M0,0v14h14V0H0z M12,12H2V2h10V12z"/></g></g>
<g transform="translate(441,105)"><g transform="scale(12)"><path d="M0,0v14h14V0H0z M12,12H2V2h10V12z"/></g></g>
<g transform="translate(105,441)"><g transform="scale(12)"><path d="M0,0v14h14V0H0z M12,12H2V2h10V12z"/></g></g>
<g transform="translate(153,153)"><g transform="scale(12)"><rect width="6" height="6"/></g></g>
<g transform="translate(489,153)"><g transform="scale(12)"><rect width="6" height="6"/></g></g>
<g transform="translate(153,489)"><g transform="scale(12)"><rect width="6" height="6"/></g></g>
</g></svg>
